<?xml version="1.0" encoding="UTF-8" standalone="no"?>
<!-- Created with Inkscape (http://www.inkscape.org/) -->

<svg
   xmlns:dc="http://purl.org/dc/elements/1.1/"
   xmlns:cc="http://creativecommons.org/ns#"
   xmlns:rdf="http://www.w3.org/1999/02/22-rdf-syntax-ns#"
   xmlns:svg="http://www.w3.org/2000/svg"
   xmlns="http://www.w3.org/2000/svg"
   xmlns:sodipodi="http://sodipodi.sourceforge.net/DTD/sodipodi-0.dtd"
   xmlns:inkscape="http://www.inkscape.org/namespaces/inkscape"
   version="1.1"
   id="svg4564"
   width="368"
   height="368"
   viewBox="0 0 368 368"
   sodipodi:docname="logo.bw.svg"
   inkscape:version="0.92.2 5c3e80d, 2017-08-06">
  <metadata
     id="metadata4570">
    <rdf:RDF>
      <cc:Work
         rdf:about="">
        <dc:format>image/svg+xml</dc:format>
        <dc:type
           rdf:resource="http://purl.org/dc/dcmitype/StillImage" />
        <dc:title></dc:title>
      </cc:Work>
    </rdf:RDF>
  </metadata>
  <defs
     id="defs4568" />
  <sodipodi:namedview
     pagecolor="#ffffff"
     bordercolor="#666666"
     borderopacity="1"
     objecttolerance="10"
     gridtolerance="10"
     guidetolerance="10"
     inkscape:pageopacity="0"
     inkscape:pageshadow="2"
     inkscape:window-width="1275"
     inkscape:window-height="798"
     id="namedview4566"
     showgrid="false"
     inkscape:zoom="0.64130435"
     inkscape:cx="183.22034"
     inkscape:cy="184"
     inkscape:window-x="0"
     inkscape:window-y="0"
     inkscape:window-maximized="0"
     inkscape:current-layer="svg4564" />
  <path
     style="fill:#000000"
     d="M 162.04238,358.91107 C 106.4009,351.71359 61.098827,322.51761 33.112845,275.81939 23.282166,259.41563 15.184803,237.31327 11.380746,216.5 c -2.5938904,-14.19204 -2.5938904,-49.80796 0,-64 C 27.019822,66.93336 96.910973,9 184.5,9 284.41884,9 360,84.581163 360,184.5 c 0,85.35218 -56.43281,155.6478 -138,171.89993 -17.77679,3.54199 -43.62073,4.62439 -59.95762,2.51114 z m -23.97497,-64.72378 22.43259,-45.8127 0.82481,5.0627 c 3.03621,18.63621 10.21696,33.08096 22.67519,45.61322 7.11473,7.15701 10.04824,9.30494 18,13.17964 13.45752,6.55754 21.00279,8.1279 36.19758,7.53363 9.61208,-0.37594 14.0565,-1.05247 20.3235,-3.09366 26.00952,-8.47142 45.08775,-31.25549 50.07491,-59.8017 3.90608,-22.35815 -1.71465,-46.04902 -15.12358,-63.74455 C 273.07722,166.2087 234.7614,157.22518 203.25,171.97035 c -3.4375,1.60851 -6.25,2.73121 -6.25,2.49488 0,-0.23632 15.3,-31.68776 34,-69.89208 C 249.7,66.368831 265,34.864593 265,34.56373 265,33.93661 242.8929,22.715464 242.58986,23.188769 242.48026,23.359946 225.35795,58.2625 204.54028,100.75 L 166.68997,178 H 152.34499 138 V 131 84 H 153.5 169 V 70.5 57 H 123.5 78 V 70.5 84 H 94.5 111 v 47 47 H 94.5 78 v 13.5 13.5 h 37.5 c 20.625,0 37.5,0.24656 37.5,0.5479 0,0.30135 -13.26534,27.59144 -29.47852,60.64466 -16.21319,33.05321 -29.742529,60.92854 -30.065197,61.94518 -0.488314,1.53854 1.142694,2.67344 9.728527,6.76936 5.67335,2.70651 10.79552,4.95962 11.3826,5.00691 0.58707,0.0473 11.16207,-20.52973 23.5,-45.72672 z M 220,296.11426 C 203.67001,290.83465 191.55551,278.81386 185.81171,262.19044 183.85775,256.53537 183.5,253.48821 183.5,242.5 c 0,-14.97998 1.85369,-22.09929 8.38158,-32.19044 C 201.77964,195.00861 216.79206,187 235.57617,187 c 20.6595,0 36.93519,10.06528 45.9709,28.42954 6.45104,13.11114 8.04288,28.0339 4.47749,41.97445 -4.92701,19.26441 -17.56728,33.28572 -34.80777,38.61077 -8.3978,2.59382 -23.35432,2.64149 -31.21679,0.0995 z"
     id="path5119"
     inkscape:connector-curvature="0" />
</svg>
